<svg xmlns="http://www.w3.org/2000/svg" width="760" height="420" viewBox="0 0 760 420"><rect width="100%" height="100%" fill="white"/><style>text{font-family:system-ui,-apple-system,Segoe UI,sans-serif;fill:#111827}.axis{stroke:#374151;stroke-width:1}.grid{stroke:#e5e7eb;stroke-width:1}.series{fill:none;stroke-width:3}.dot{stroke:white;stroke-width:1.5}</style><text x="380" y="28" text-anchor="middle" font-size="20" font-weight="700">Decision Analysis: High-Demand Probability Sensitivity</text><line class="grid" x1="72" y1="358" x2="736" y2="358"/><text x="62" y="362" text-anchor="end" font-size="12">98</text><line class="grid" x1="72" y1="282" x2="736" y2="282"/><text x="62" y="286" text-anchor="end" font-size="12">147</text><line class="grid" x1="72" y1="206" x2="736" y2="206"/><text x="62" y="210" text-anchor="end" font-size="12">196</text><line class="grid" x1="72" y1="130" x2="736" y2="130"/><text x="62" y="134" text-anchor="end" font-size="12">245</text><line class="grid" x1="72" y1="54" x2="736" y2="54"/><text x="62" y="58" text-anchor="end" font-size="12">294</text><line class="grid" x1="72" y1="54" x2="72" y2="358"/><text x="72" y="378" text-anchor="middle" font-size="12">0.05</text><line class="grid" x1="238" y1="54" x2="238" y2="358"/><text x="238" y="378" text-anchor="middle" font-size="12">0.19</text><line class="grid" x1="404" y1="54" x2="404" y2="358"/><text x="404" y="378" text-anchor="middle" font-size="12">0.32</text><line class="grid" x1="570" y1="54" x2="570" y2="358"/><text x="570" y="378" text-anchor="middle" font-size="12">0.46</text><line class="grid" x1="736" y1="54" x2="736" y2="358"/><text x="736" y="378" text-anchor="middle" font-size="12">0.60</text><line class="axis" x1="72" y1="358" x2="736" y2="358"/><line class="axis" x1="72" y1="54" x2="72" y2="358"/><text x="380" y="402" text-anchor="middle" font-size="13">Probability of high demand</text><text x="18" y="210" text-anchor="middle" font-size="13" transform="rotate(-90 18 210)">Expected NPV</text><polyline class="series" stroke="#2563eb" points="72.0,337.0 132.4,334.3 192.7,331.6 253.1,328.9 313.5,326.2 373.8,323.5 434.2,320.7 494.5,318.0 554.9,315.3 615.3,312.6 675.6,309.9 736.0,307.2"/><circle class="dot" fill="#2563eb" cx="72.0" cy="337.0" r="4"/><circle class="dot" fill="#2563eb" cx="132.4" cy="334.3" r="4"/><circle class="dot" fill="#2563eb" cx="192.7" cy="331.6" r="4"/><circle class="dot" fill="#2563eb" cx="253.1" cy="328.9" r="4"/><circle class="dot" fill="#2563eb" cx="313.5" cy="326.2" r="4"/><circle class="dot" fill="#2563eb" cx="373.8" cy="323.5" r="4"/><circle class="dot" fill="#2563eb" cx="434.2" cy="320.7" r="4"/><circle class="dot" fill="#2563eb" cx="494.5" cy="318.0" r="4"/><circle class="dot" fill="#2563eb" cx="554.9" cy="315.3" r="4"/><circle class="dot" fill="#2563eb" cx="615.3" cy="312.6" r="4"/><circle class="dot" fill="#2563eb" cx="675.6" cy="309.9" r="4"/><circle class="dot" fill="#2563eb" cx="736.0" cy="307.2" r="4"/><line x1="550" y1="62" x2="578" y2="62" stroke="#2563eb" stroke-width="3"/><text x="587" y="66" font-size="12">Status Quo</text><polyline class="series" stroke="#dc2626" points="72.0,291.3 132.4,281.6 192.7,271.9 253.1,262.2 313.5,252.5 373.8,242.8 434.2,233.1 494.5,223.4 554.9,213.7 615.3,204.0 675.6,194.3 736.0,184.6"/><circle class="dot" fill="#dc2626" cx="72.0" cy="291.3" r="4"/><circle class="dot" fill="#dc2626" cx="132.4" cy="281.6" r="4"/><circle class="dot" fill="#dc2626" cx="192.7" cy="271.9" r="4"/><circle class="dot" fill="#dc2626" cx="253.1" cy="262.2" r="4"/><circle class="dot" fill="#dc2626" cx="313.5" cy="252.5" r="4"/><circle class="dot" fill="#dc2626" cx="373.8" cy="242.8" r="4"/><circle class="dot" fill="#dc2626" cx="434.2" cy="233.1" r="4"/><circle class="dot" fill="#dc2626" cx="494.5" cy="223.4" r="4"/><circle class="dot" fill="#dc2626" cx="554.9" cy="213.7" r="4"/><circle class="dot" fill="#dc2626" cx="615.3" cy="204.0" r="4"/><circle class="dot" fill="#dc2626" cx="675.6" cy="194.3" r="4"/><circle class="dot" fill="#dc2626" cx="736.0" cy="184.6" r="4"/><line x1="550" y1="84" x2="578" y2="84" stroke="#dc2626" stroke-width="3"/><text x="587" y="88" font-size="12">Lease Capacity</text><polyline class="series" stroke="#059669" points="72.0,308.2 132.4,287.0 192.7,265.8 253.1,244.6 313.5,223.4 373.8,202.2 434.2,181.0 494.5,159.8 554.9,138.6 615.3,117.4 675.6,96.2 736.0,75.0"/><circle class="dot" fill="#059669" cx="72.0" cy="308.2" r="4"/><circle class="dot" fill="#059669" cx="132.4" cy="287.0" r="4"/><circle class="dot" fill="#059669" cx="192.7" cy="265.8" r="4"/><circle class="dot" fill="#059669" cx="253.1" cy="244.6" r="4"/><circle class="dot" fill="#059669" cx="313.5" cy="223.4" r="4"/><circle class="dot" fill="#059669" cx="373.8" cy="202.2" r="4"/><circle class="dot" fill="#059669" cx="434.2" cy="181.0" r="4"/><circle class="dot" fill="#059669" cx="494.5" cy="159.8" r="4"/><circle class="dot" fill="#059669" cx="554.9" cy="138.6" r="4"/><circle class="dot" fill="#059669" cx="615.3" cy="117.4" r="4"/><circle class="dot" fill="#059669" cx="675.6" cy="96.2" r="4"/><circle class="dot" fill="#059669" cx="736.0" cy="75.0" r="4"/><line x1="550" y1="106" x2="578" y2="106" stroke="#059669" stroke-width="3"/><text x="587" y="110" font-size="12">Build Facility</text></svg>